<mxfile host="app.diagrams.net" modified="2024-05-20T06:43:55.398Z" agent="Mozilla/5.0 (Windows NT 10.0; Win64; x64) AppleWebKit/537.36 (KHTML, like Gecko) Chrome/124.0.0.0 Safari/537.36" etag="3ZeiM7fF7N4GYwtcL_bI" version="24.4.2" type="device">
  <diagram name="Seite-1" id="6ON9sw5R4fzX167b-eq9">
    <mxGraphModel dx="2436" dy="531" grid="1" gridSize="10" guides="1" tooltips="1" connect="1" arrows="1" fold="1" page="1" pageScale="1" pageWidth="827" pageHeight="1169" math="0" shadow="0">
      <root>
        <mxCell id="0" />
        <mxCell id="1" parent="0" />
        <mxCell id="132mra72fxJDadRksCU5-4" value="" style="edgeStyle=orthogonalEdgeStyle;rounded=0;orthogonalLoop=1;jettySize=auto;html=1;" parent="1" source="132mra72fxJDadRksCU5-1" target="132mra72fxJDadRksCU5-3" edge="1">
          <mxGeometry relative="1" as="geometry" />
        </mxCell>
        <mxCell id="132mra72fxJDadRksCU5-1" value="User will Zeugnisse ansehen" style="rounded=1;whiteSpace=wrap;html=1;fillColor=#1ba1e2;fontColor=#ffffff;strokeColor=#006EAF;" parent="1" vertex="1">
          <mxGeometry x="330" y="50" width="180" height="60" as="geometry" />
        </mxCell>
        <mxCell id="132mra72fxJDadRksCU5-6" value="" style="edgeStyle=orthogonalEdgeStyle;rounded=0;orthogonalLoop=1;jettySize=auto;html=1;" parent="1" source="132mra72fxJDadRksCU5-3" target="132mra72fxJDadRksCU5-5" edge="1">
          <mxGeometry relative="1" as="geometry" />
        </mxCell>
        <mxCell id="132mra72fxJDadRksCU5-3" value="Klick in Nav-Leiste auf &quot;Zeugnisse&quot;" style="whiteSpace=wrap;html=1;fillColor=#008a00;strokeColor=#005700;fontColor=#ffffff;rounded=1;" parent="1" vertex="1">
          <mxGeometry x="340" y="160" width="160" height="60" as="geometry" />
        </mxCell>
        <mxCell id="132mra72fxJDadRksCU5-16" value="" style="edgeStyle=orthogonalEdgeStyle;rounded=0;orthogonalLoop=1;jettySize=auto;html=1;" parent="1" source="132mra72fxJDadRksCU5-5" target="132mra72fxJDadRksCU5-15" edge="1">
          <mxGeometry relative="1" as="geometry" />
        </mxCell>
        <mxCell id="132mra72fxJDadRksCU5-72" style="edgeStyle=orthogonalEdgeStyle;rounded=0;orthogonalLoop=1;jettySize=auto;html=1;entryX=0.5;entryY=0;entryDx=0;entryDy=0;" parent="1" source="132mra72fxJDadRksCU5-5" target="132mra72fxJDadRksCU5-13" edge="1">
          <mxGeometry relative="1" as="geometry" />
        </mxCell>
        <mxCell id="132mra72fxJDadRksCU5-5" value="Modal erscheint" style="whiteSpace=wrap;html=1;fillColor=#bac8d3;strokeColor=#23445d;rounded=1;" parent="1" vertex="1">
          <mxGeometry x="360" y="260" width="120" height="40" as="geometry" />
        </mxCell>
        <mxCell id="132mra72fxJDadRksCU5-31" value="" style="edgeStyle=orthogonalEdgeStyle;rounded=0;orthogonalLoop=1;jettySize=auto;html=1;" parent="1" source="132mra72fxJDadRksCU5-13" target="132mra72fxJDadRksCU5-30" edge="1">
          <mxGeometry relative="1" as="geometry" />
        </mxCell>
        <mxCell id="132mra72fxJDadRksCU5-13" value="Zugangscode bekannt" style="whiteSpace=wrap;html=1;fillColor=#cce5ff;strokeColor=#36393d;rounded=1;" parent="1" vertex="1">
          <mxGeometry x="3" y="319.93" width="120" height="60" as="geometry" />
        </mxCell>
        <mxCell id="132mra72fxJDadRksCU5-41" value="" style="edgeStyle=orthogonalEdgeStyle;rounded=0;orthogonalLoop=1;jettySize=auto;html=1;" parent="1" source="132mra72fxJDadRksCU5-15" target="132mra72fxJDadRksCU5-40" edge="1">
          <mxGeometry relative="1" as="geometry" />
        </mxCell>
        <mxCell id="132mra72fxJDadRksCU5-15" value="Zugangscode nicht bekannt/vergessen" style="whiteSpace=wrap;html=1;fillColor=#cce5ff;strokeColor=#36393d;rounded=1;" parent="1" vertex="1">
          <mxGeometry x="640" y="320" width="120" height="60" as="geometry" />
        </mxCell>
        <mxCell id="132mra72fxJDadRksCU5-17" value="Zugriff anfordern" style="swimlane;whiteSpace=wrap;html=1;" parent="1" vertex="1">
          <mxGeometry x="-780" y="20" width="590" height="440" as="geometry" />
        </mxCell>
        <mxCell id="132mra72fxJDadRksCU5-18" value="Du hast bereits einen Zugriffs-Code?&lt;div&gt;Du kannst ihn hier eingeben:&lt;/div&gt;" style="text;html=1;align=center;verticalAlign=middle;whiteSpace=wrap;rounded=0;" parent="132mra72fxJDadRksCU5-17" vertex="1">
          <mxGeometry x="20" y="40" width="200" height="30" as="geometry" />
        </mxCell>
        <mxCell id="132mra72fxJDadRksCU5-19" value="" style="rounded=0;whiteSpace=wrap;html=1;" parent="132mra72fxJDadRksCU5-17" vertex="1">
          <mxGeometry x="75" y="80" width="65" height="20" as="geometry" />
        </mxCell>
        <mxCell id="132mra72fxJDadRksCU5-20" value="Du hast noch keinen Zugangs-Code?&lt;div&gt;Oder Zugangs-Code vergessen?&lt;/div&gt;" style="text;html=1;align=center;verticalAlign=middle;whiteSpace=wrap;rounded=0;" parent="132mra72fxJDadRksCU5-17" vertex="1">
          <mxGeometry x="320" y="40" width="230" height="30" as="geometry" />
        </mxCell>
        <mxCell id="132mra72fxJDadRksCU5-21" value="Code anfordern" style="rounded=1;whiteSpace=wrap;html=1;" parent="132mra72fxJDadRksCU5-17" vertex="1">
          <mxGeometry x="375" y="75" width="120" height="30" as="geometry" />
        </mxCell>
        <mxCell id="132mra72fxJDadRksCU5-22" value="&lt;i&gt;onClick erscheint ein Formular --&amp;gt;&lt;/i&gt;" style="text;html=1;align=center;verticalAlign=middle;whiteSpace=wrap;rounded=0;" parent="132mra72fxJDadRksCU5-17" vertex="1">
          <mxGeometry x="325" y="110" width="220" height="30" as="geometry" />
        </mxCell>
        <mxCell id="132mra72fxJDadRksCU5-23" value="Vorname" style="text;html=1;align=left;verticalAlign=middle;whiteSpace=wrap;rounded=0;" parent="132mra72fxJDadRksCU5-17" vertex="1">
          <mxGeometry x="340" y="140" width="70" height="30" as="geometry" />
        </mxCell>
        <mxCell id="132mra72fxJDadRksCU5-24" value="Nachname" style="text;html=1;align=left;verticalAlign=middle;whiteSpace=wrap;rounded=0;" parent="132mra72fxJDadRksCU5-17" vertex="1">
          <mxGeometry x="340" y="160" width="70" height="30" as="geometry" />
        </mxCell>
        <mxCell id="132mra72fxJDadRksCU5-25" value="E-Mail-Adresse:" style="text;html=1;align=left;verticalAlign=middle;whiteSpace=wrap;rounded=0;" parent="132mra72fxJDadRksCU5-17" vertex="1">
          <mxGeometry x="340" y="180" width="110" height="30" as="geometry" />
        </mxCell>
        <mxCell id="132mra72fxJDadRksCU5-26" value="Anfrage senden" style="rounded=1;whiteSpace=wrap;html=1;" parent="132mra72fxJDadRksCU5-17" vertex="1">
          <mxGeometry x="375" y="210" width="120" height="30" as="geometry" />
        </mxCell>
        <mxCell id="132mra72fxJDadRksCU5-27" value="Rückmeldung" style="whiteSpace=wrap;html=1;shape=mxgraph.basic.oval_callout" parent="132mra72fxJDadRksCU5-17" vertex="1">
          <mxGeometry x="480" y="185" width="140" height="40" as="geometry" />
        </mxCell>
        <mxCell id="132mra72fxJDadRksCU5-28" value="&lt;span style=&quot;color: rgb(0, 0, 0); font-family: Helvetica; font-size: 12px; font-style: normal; font-variant-ligatures: normal; font-variant-caps: normal; letter-spacing: normal; orphans: 2; text-align: center; text-indent: 0px; text-transform: none; widows: 2; word-spacing: 0px; -webkit-text-stroke-width: 0px; white-space: normal; background-color: rgb(251, 251, 251); text-decoration-thickness: initial; text-decoration-style: initial; text-decoration-color: initial; float: none; display: inline !important;&quot;&gt;&lt;b&gt;success&lt;/b&gt;&lt;/span&gt;&lt;span style=&quot;color: rgb(0, 0, 0); font-family: Helvetica; font-size: 12px; font-style: normal; font-variant-ligatures: normal; font-variant-caps: normal; font-weight: 400; letter-spacing: normal; orphans: 2; text-align: center; text-indent: 0px; text-transform: none; widows: 2; word-spacing: 0px; -webkit-text-stroke-width: 0px; white-space: normal; background-color: rgb(251, 251, 251); text-decoration-thickness: initial; text-decoration-style: initial; text-decoration-color: initial; display: inline !important; float: none;&quot;&gt;: Ein Code wurde an deine E-Mail gesendet&lt;/span&gt;&lt;div&gt;&lt;b style=&quot;text-align: center;&quot;&gt;&lt;br&gt;&lt;/b&gt;&lt;/div&gt;&lt;div&gt;&lt;b style=&quot;text-align: center;&quot;&gt;error&lt;/b&gt;&lt;span style=&quot;text-align: center;&quot;&gt;: if (vorname + nachname =! in Datenbank) {Dein Name ist mir nicht bekannt. Bitte teile mir kurz mit, wer du bist und, warum du meine Zeugnisse ansehen möchtest. Anschließend werde ich deine Anfrage&amp;nbsp;&lt;/span&gt;&lt;span style=&quot;text-align: center; background-color: initial;&quot;&gt;schnellstmöglich&lt;/span&gt;&lt;span style=&quot;text-align: center; background-color: initial;&quot;&gt;&amp;nbsp;bearbeiten}&lt;/span&gt;&lt;/div&gt;" style="text;whiteSpace=wrap;html=1;" parent="132mra72fxJDadRksCU5-17" vertex="1">
          <mxGeometry x="350" y="265" width="210" height="145" as="geometry" />
        </mxCell>
        <mxCell id="132mra72fxJDadRksCU5-29" value="Zugriff anfordern" style="rounded=1;whiteSpace=wrap;html=1;" parent="132mra72fxJDadRksCU5-17" vertex="1">
          <mxGeometry x="47.5" y="110" width="120" height="30" as="geometry" />
        </mxCell>
        <mxCell id="132mra72fxJDadRksCU5-33" value="" style="edgeStyle=orthogonalEdgeStyle;rounded=0;orthogonalLoop=1;jettySize=auto;html=1;" parent="1" source="132mra72fxJDadRksCU5-30" target="132mra72fxJDadRksCU5-32" edge="1">
          <mxGeometry relative="1" as="geometry" />
        </mxCell>
        <mxCell id="132mra72fxJDadRksCU5-35" value="" style="edgeStyle=orthogonalEdgeStyle;rounded=0;orthogonalLoop=1;jettySize=auto;html=1;" parent="1" source="132mra72fxJDadRksCU5-30" target="132mra72fxJDadRksCU5-34" edge="1">
          <mxGeometry relative="1" as="geometry" />
        </mxCell>
        <mxCell id="132mra72fxJDadRksCU5-30" value="Zugangscode eingeben" style="whiteSpace=wrap;html=1;fillColor=#008a00;strokeColor=#005700;rounded=1;fontColor=#ffffff;" parent="1" vertex="1">
          <mxGeometry x="3" y="429.93" width="120" height="60" as="geometry" />
        </mxCell>
        <mxCell id="132mra72fxJDadRksCU5-32" value="max. 6 Zeichen" style="ellipse;whiteSpace=wrap;html=1;fillColor=#bac8d3;strokeColor=#23445d;rounded=1;" parent="1" vertex="1">
          <mxGeometry x="163" y="419.93" width="80" height="80" as="geometry" />
        </mxCell>
        <mxCell id="132mra72fxJDadRksCU5-60" style="edgeStyle=orthogonalEdgeStyle;rounded=0;orthogonalLoop=1;jettySize=auto;html=1;entryX=0.5;entryY=0;entryDx=0;entryDy=0;" parent="1" source="132mra72fxJDadRksCU5-34" target="132mra72fxJDadRksCU5-59" edge="1">
          <mxGeometry relative="1" as="geometry" />
        </mxCell>
        <mxCell id="132mra72fxJDadRksCU5-34" value="Klick auf Button &quot;Zeugnisse ansehen&quot;" style="whiteSpace=wrap;html=1;fillColor=#008a00;strokeColor=#005700;rounded=1;fontColor=#ffffff;" parent="1" vertex="1">
          <mxGeometry x="-2" y="534.93" width="130" height="60" as="geometry" />
        </mxCell>
        <mxCell id="132mra72fxJDadRksCU5-39" value="" style="edgeStyle=orthogonalEdgeStyle;rounded=0;orthogonalLoop=1;jettySize=auto;html=1;" parent="1" source="132mra72fxJDadRksCU5-36" target="132mra72fxJDadRksCU5-38" edge="1">
          <mxGeometry relative="1" as="geometry" />
        </mxCell>
        <mxCell id="132mra72fxJDadRksCU5-36" value="Modal schließt sich + Certificates.jsx erscheint (scroll to Certificates)" style="whiteSpace=wrap;html=1;fillColor=#bac8d3;strokeColor=#23445d;rounded=1;" parent="1" vertex="1">
          <mxGeometry x="-17" y="906.18" width="160" height="85" as="geometry" />
        </mxCell>
        <mxCell id="132mra72fxJDadRksCU5-152" value="" style="edgeStyle=orthogonalEdgeStyle;rounded=0;orthogonalLoop=1;jettySize=auto;html=1;" parent="1" source="132mra72fxJDadRksCU5-38" target="132mra72fxJDadRksCU5-151" edge="1">
          <mxGeometry relative="1" as="geometry" />
        </mxCell>
        <mxCell id="132mra72fxJDadRksCU5-38" value="Nach schließen des Fensters logout (keine Zeugnisse mehr ansehen möglich)&lt;div&gt;ODER:&lt;/div&gt;&lt;div&gt;Nach Code-Eingabe erscheint Certificates nur für bestimmten Zeitraum (z.B. 30 Minuten)&lt;/div&gt;" style="ellipse;whiteSpace=wrap;html=1;fillColor=#bac8d3;strokeColor=#23445d;rounded=1;" parent="1" vertex="1">
          <mxGeometry x="200" y="877.43" width="270" height="142.5" as="geometry" />
        </mxCell>
        <mxCell id="132mra72fxJDadRksCU5-43" value="" style="edgeStyle=orthogonalEdgeStyle;rounded=0;orthogonalLoop=1;jettySize=auto;html=1;" parent="1" source="132mra72fxJDadRksCU5-40" target="132mra72fxJDadRksCU5-42" edge="1">
          <mxGeometry relative="1" as="geometry" />
        </mxCell>
        <mxCell id="132mra72fxJDadRksCU5-40" value="Klick auf Button &quot;Code anfordern&quot;" style="whiteSpace=wrap;html=1;fillColor=#008a00;strokeColor=#005700;rounded=1;fontColor=#ffffff;" parent="1" vertex="1">
          <mxGeometry x="640" y="420" width="120" height="60" as="geometry" />
        </mxCell>
        <mxCell id="132mra72fxJDadRksCU5-45" value="" style="edgeStyle=orthogonalEdgeStyle;rounded=0;orthogonalLoop=1;jettySize=auto;html=1;" parent="1" source="132mra72fxJDadRksCU5-42" target="132mra72fxJDadRksCU5-44" edge="1">
          <mxGeometry relative="1" as="geometry" />
        </mxCell>
        <mxCell id="132mra72fxJDadRksCU5-42" value="Formular erscheint" style="whiteSpace=wrap;html=1;fillColor=#bac8d3;strokeColor=#23445d;rounded=1;" parent="1" vertex="1">
          <mxGeometry x="640" y="525" width="120" height="60" as="geometry" />
        </mxCell>
        <mxCell id="132mra72fxJDadRksCU5-47" value="" style="edgeStyle=orthogonalEdgeStyle;rounded=0;orthogonalLoop=1;jettySize=auto;html=1;" parent="1" source="132mra72fxJDadRksCU5-44" target="132mra72fxJDadRksCU5-46" edge="1">
          <mxGeometry relative="1" as="geometry" />
        </mxCell>
        <mxCell id="132mra72fxJDadRksCU5-44" value="Vorname, Nachname, E-Mail, Button" style="whiteSpace=wrap;html=1;fillColor=#cce5ff;strokeColor=#36393d;rounded=1;" parent="1" vertex="1">
          <mxGeometry x="640" y="620" width="120" height="60" as="geometry" />
        </mxCell>
        <mxCell id="132mra72fxJDadRksCU5-49" value="" style="edgeStyle=orthogonalEdgeStyle;rounded=0;orthogonalLoop=1;jettySize=auto;html=1;" parent="1" source="132mra72fxJDadRksCU5-46" target="132mra72fxJDadRksCU5-48" edge="1">
          <mxGeometry relative="1" as="geometry" />
        </mxCell>
        <mxCell id="132mra72fxJDadRksCU5-46" value="Klick auf Button &quot;Anfrage senden&quot;" style="whiteSpace=wrap;html=1;fillColor=#008a00;strokeColor=#005700;rounded=1;fontColor=#ffffff;" parent="1" vertex="1">
          <mxGeometry x="640" y="720" width="120" height="60" as="geometry" />
        </mxCell>
        <mxCell id="132mra72fxJDadRksCU5-51" value="" style="edgeStyle=orthogonalEdgeStyle;rounded=0;orthogonalLoop=1;jettySize=auto;html=1;" parent="1" source="132mra72fxJDadRksCU5-48" target="132mra72fxJDadRksCU5-50" edge="1">
          <mxGeometry relative="1" as="geometry" />
        </mxCell>
        <mxCell id="132mra72fxJDadRksCU5-52" value="&lt;font style=&quot;font-size: 16px;&quot;&gt;nein&lt;/font&gt;" style="edgeLabel;html=1;align=center;verticalAlign=middle;resizable=0;points=[];labelBackgroundColor=#FF9999;" parent="132mra72fxJDadRksCU5-51" vertex="1" connectable="0">
          <mxGeometry x="-0.0417" y="-1" relative="1" as="geometry">
            <mxPoint as="offset" />
          </mxGeometry>
        </mxCell>
        <mxCell id="132mra72fxJDadRksCU5-99" value="" style="edgeStyle=orthogonalEdgeStyle;rounded=0;orthogonalLoop=1;jettySize=auto;html=1;entryX=0.5;entryY=0;entryDx=0;entryDy=0;" parent="1" source="132mra72fxJDadRksCU5-48" target="132mra72fxJDadRksCU5-101" edge="1">
          <mxGeometry relative="1" as="geometry">
            <mxPoint x="697.5294117647059" y="1060.028694404591" as="targetPoint" />
          </mxGeometry>
        </mxCell>
        <mxCell id="132mra72fxJDadRksCU5-100" value="&lt;font style=&quot;font-size: 16px;&quot;&gt;ja&lt;/font&gt;" style="edgeLabel;html=1;align=center;verticalAlign=middle;resizable=0;points=[];labelBackgroundColor=#80FF00;" parent="132mra72fxJDadRksCU5-99" vertex="1" connectable="0">
          <mxGeometry x="0.5093" y="2" relative="1" as="geometry">
            <mxPoint x="-2" y="-18" as="offset" />
          </mxGeometry>
        </mxCell>
        <mxCell id="132mra72fxJDadRksCU5-48" value="alle Felder ausgefüllt?" style="rhombus;whiteSpace=wrap;html=1;fillColor=#e3c800;strokeColor=#B09500;fontColor=#000000;rounded=1;" parent="1" vertex="1">
          <mxGeometry x="595" y="820" width="210" height="190" as="geometry" />
        </mxCell>
        <mxCell id="132mra72fxJDadRksCU5-97" style="edgeStyle=orthogonalEdgeStyle;rounded=0;orthogonalLoop=1;jettySize=auto;html=1;entryX=1;entryY=0.5;entryDx=0;entryDy=0;" parent="1" source="132mra72fxJDadRksCU5-50" target="132mra72fxJDadRksCU5-46" edge="1">
          <mxGeometry relative="1" as="geometry">
            <Array as="points">
              <mxPoint x="955" y="750" />
            </Array>
          </mxGeometry>
        </mxCell>
        <mxCell id="132mra72fxJDadRksCU5-50" value="Rückmeldung: Bitte Feld XY ausfüllen!" style="whiteSpace=wrap;html=1;fillColor=#60a917;strokeColor=#2D7600;fontColor=#ffffff;rounded=1;" parent="1" vertex="1">
          <mxGeometry x="880" y="885" width="150" height="60" as="geometry" />
        </mxCell>
        <mxCell id="132mra72fxJDadRksCU5-71" style="edgeStyle=orthogonalEdgeStyle;rounded=0;orthogonalLoop=1;jettySize=auto;html=1;entryX=0;entryY=0.5;entryDx=0;entryDy=0;" parent="1" source="132mra72fxJDadRksCU5-53" target="132mra72fxJDadRksCU5-30" edge="1">
          <mxGeometry relative="1" as="geometry">
            <Array as="points">
              <mxPoint x="-110" y="1440" />
              <mxPoint x="-110" y="460" />
            </Array>
          </mxGeometry>
        </mxCell>
        <mxCell id="132mra72fxJDadRksCU5-77" value="Code eingeben" style="edgeLabel;html=1;align=center;verticalAlign=middle;resizable=0;points=[];" parent="132mra72fxJDadRksCU5-71" vertex="1" connectable="0">
          <mxGeometry x="-0.6268" y="-1" relative="1" as="geometry">
            <mxPoint x="-1" as="offset" />
          </mxGeometry>
        </mxCell>
        <mxCell id="132mra72fxJDadRksCU5-53" value="Rückmeldung: Code wurde an E-Mail gesendet - bitte in Feld oben eingeben" style="whiteSpace=wrap;html=1;fillColor=#60a917;strokeColor=#2D7600;fontColor=#ffffff;rounded=1;" parent="1" vertex="1">
          <mxGeometry x="575" y="1410" width="250" height="60" as="geometry" />
        </mxCell>
        <mxCell id="132mra72fxJDadRksCU5-61" style="edgeStyle=orthogonalEdgeStyle;rounded=0;orthogonalLoop=1;jettySize=auto;html=1;entryX=0.5;entryY=0;entryDx=0;entryDy=0;" parent="1" source="132mra72fxJDadRksCU5-59" target="132mra72fxJDadRksCU5-36" edge="1">
          <mxGeometry relative="1" as="geometry" />
        </mxCell>
        <mxCell id="132mra72fxJDadRksCU5-62" value="&lt;font style=&quot;font-size: 16px;&quot;&gt;ja&lt;/font&gt;" style="edgeLabel;html=1;align=center;verticalAlign=middle;resizable=0;points=[];labelBackgroundColor=#80FF00;" parent="132mra72fxJDadRksCU5-61" vertex="1" connectable="0">
          <mxGeometry x="-0.4137" y="-2" relative="1" as="geometry">
            <mxPoint x="2" y="17" as="offset" />
          </mxGeometry>
        </mxCell>
        <mxCell id="132mra72fxJDadRksCU5-69" style="edgeStyle=orthogonalEdgeStyle;rounded=0;orthogonalLoop=1;jettySize=auto;html=1;entryX=0;entryY=0.5;entryDx=0;entryDy=0;" parent="1" source="132mra72fxJDadRksCU5-59" target="132mra72fxJDadRksCU5-65" edge="1">
          <mxGeometry relative="1" as="geometry" />
        </mxCell>
        <mxCell id="132mra72fxJDadRksCU5-70" value="&lt;font style=&quot;font-size: 16px;&quot;&gt;nein&lt;/font&gt;" style="edgeLabel;html=1;align=center;verticalAlign=middle;resizable=0;points=[];labelBackgroundColor=#FF9999;" parent="132mra72fxJDadRksCU5-69" vertex="1" connectable="0">
          <mxGeometry x="-0.0806" relative="1" as="geometry">
            <mxPoint as="offset" />
          </mxGeometry>
        </mxCell>
        <mxCell id="132mra72fxJDadRksCU5-87" value="" style="edgeStyle=orthogonalEdgeStyle;rounded=0;orthogonalLoop=1;jettySize=auto;html=1;dashed=1;strokeWidth=3;" parent="1" source="132mra72fxJDadRksCU5-59" target="132mra72fxJDadRksCU5-86" edge="1">
          <mxGeometry relative="1" as="geometry" />
        </mxCell>
        <mxCell id="132mra72fxJDadRksCU5-59" value="Code korrekt?&lt;div&gt;(Abgleich mit DB - User + Code)&lt;/div&gt;" style="rhombus;whiteSpace=wrap;html=1;fillColor=#e3c800;strokeColor=#B09500;fontColor=#000000;rounded=1;" parent="1" vertex="1">
          <mxGeometry x="-42" y="639.93" width="210" height="190" as="geometry" />
        </mxCell>
        <mxCell id="132mra72fxJDadRksCU5-73" style="edgeStyle=orthogonalEdgeStyle;rounded=0;orthogonalLoop=1;jettySize=auto;html=1;entryX=1;entryY=0.5;entryDx=0;entryDy=0;" parent="1" source="132mra72fxJDadRksCU5-65" target="132mra72fxJDadRksCU5-13" edge="1">
          <mxGeometry relative="1" as="geometry">
            <Array as="points">
              <mxPoint x="320" y="350" />
            </Array>
          </mxGeometry>
        </mxCell>
        <mxCell id="132mra72fxJDadRksCU5-76" value="Code&lt;div&gt;erneut&lt;/div&gt;&lt;div&gt;eingeben&lt;/div&gt;" style="edgeLabel;html=1;align=center;verticalAlign=middle;resizable=0;points=[];" parent="132mra72fxJDadRksCU5-73" vertex="1" connectable="0">
          <mxGeometry x="-0.556" y="1" relative="1" as="geometry">
            <mxPoint as="offset" />
          </mxGeometry>
        </mxCell>
        <mxCell id="132mra72fxJDadRksCU5-74" style="edgeStyle=orthogonalEdgeStyle;rounded=0;orthogonalLoop=1;jettySize=auto;html=1;entryX=0;entryY=0.5;entryDx=0;entryDy=0;" parent="1" source="132mra72fxJDadRksCU5-65" target="132mra72fxJDadRksCU5-15" edge="1">
          <mxGeometry relative="1" as="geometry">
            <Array as="points">
              <mxPoint x="390" y="350" />
            </Array>
          </mxGeometry>
        </mxCell>
        <mxCell id="132mra72fxJDadRksCU5-75" value="neuen&lt;div&gt;Code&lt;/div&gt;&lt;div&gt;anfordern&lt;/div&gt;" style="edgeLabel;html=1;align=center;verticalAlign=middle;resizable=0;points=[];" parent="132mra72fxJDadRksCU5-74" vertex="1" connectable="0">
          <mxGeometry x="-0.2992" y="-4" relative="1" as="geometry">
            <mxPoint as="offset" />
          </mxGeometry>
        </mxCell>
        <mxCell id="132mra72fxJDadRksCU5-65" value="Rückmeldung: Code unbekannt (Eingabe prüfen oder neuen Code anfordern)" style="whiteSpace=wrap;html=1;fillColor=#60a917;strokeColor=#2D7600;fontColor=#ffffff;rounded=1;" parent="1" vertex="1">
          <mxGeometry x="230" y="702.43" width="240" height="65" as="geometry" />
        </mxCell>
        <mxCell id="132mra72fxJDadRksCU5-78" value="User" style="swimlane;whiteSpace=wrap;html=1;fillColor=#76608a;fontColor=#ffffff;strokeColor=#432D57;" parent="1" vertex="1">
          <mxGeometry x="890" y="30" width="220" height="270" as="geometry" />
        </mxCell>
        <mxCell id="132mra72fxJDadRksCU5-79" value="_id: Obj_ID" style="text;html=1;align=left;verticalAlign=middle;resizable=0;points=[];autosize=1;strokeColor=none;fillColor=none;" parent="132mra72fxJDadRksCU5-78" vertex="1">
          <mxGeometry x="70" y="40" width="80" height="30" as="geometry" />
        </mxCell>
        <mxCell id="132mra72fxJDadRksCU5-80" value="Vorname: String" style="text;html=1;align=left;verticalAlign=middle;resizable=0;points=[];autosize=1;strokeColor=none;fillColor=none;" parent="132mra72fxJDadRksCU5-78" vertex="1">
          <mxGeometry x="70" y="64" width="110" height="30" as="geometry" />
        </mxCell>
        <mxCell id="132mra72fxJDadRksCU5-81" value="Nachname: String" style="text;html=1;align=left;verticalAlign=middle;resizable=0;points=[];autosize=1;strokeColor=none;fillColor=none;" parent="132mra72fxJDadRksCU5-78" vertex="1">
          <mxGeometry x="70" y="90" width="120" height="30" as="geometry" />
        </mxCell>
        <mxCell id="132mra72fxJDadRksCU5-82" value="E-Mail: String" style="text;html=1;align=left;verticalAlign=middle;resizable=0;points=[];autosize=1;strokeColor=none;fillColor=none;" parent="132mra72fxJDadRksCU5-78" vertex="1">
          <mxGeometry x="70" y="112" width="100" height="30" as="geometry" />
        </mxCell>
        <mxCell id="132mra72fxJDadRksCU5-83" value="Code: Number" style="text;html=1;align=left;verticalAlign=middle;resizable=0;points=[];autosize=1;strokeColor=none;fillColor=none;" parent="132mra72fxJDadRksCU5-78" vertex="1">
          <mxGeometry x="70" y="154" width="100" height="30" as="geometry" />
        </mxCell>
        <mxCell id="132mra72fxJDadRksCU5-84" value="Unternehmen: String" style="text;html=1;align=left;verticalAlign=middle;resizable=0;points=[];autosize=1;strokeColor=none;fillColor=none;" parent="132mra72fxJDadRksCU5-78" vertex="1">
          <mxGeometry x="70" y="178" width="130" height="30" as="geometry" />
        </mxCell>
        <mxCell id="132mra72fxJDadRksCU5-85" value="Position: String" style="text;html=1;align=left;verticalAlign=middle;resizable=0;points=[];autosize=1;strokeColor=none;fillColor=none;" parent="132mra72fxJDadRksCU5-78" vertex="1">
          <mxGeometry x="70" y="200" width="100" height="30" as="geometry" />
        </mxCell>
        <mxCell id="132mra72fxJDadRksCU5-113" value="ZugriffsGrund: String" style="text;html=1;align=left;verticalAlign=middle;resizable=0;points=[];autosize=1;strokeColor=none;fillColor=none;" parent="132mra72fxJDadRksCU5-78" vertex="1">
          <mxGeometry x="70" y="221" width="130" height="30" as="geometry" />
        </mxCell>
        <mxCell id="132mra72fxJDadRksCU5-145" value="Telefon: String" style="text;html=1;align=left;verticalAlign=middle;resizable=0;points=[];autosize=1;strokeColor=none;fillColor=none;" parent="132mra72fxJDadRksCU5-78" vertex="1">
          <mxGeometry x="70" y="134" width="100" height="30" as="geometry" />
        </mxCell>
        <mxCell id="txxwDZoAXELs_-vxZRHw-13" value="" style="sketch=0;html=1;aspect=fixed;strokeColor=none;shadow=0;align=center;fillColor=#2D9C5E;verticalAlign=top;labelPosition=center;verticalLabelPosition=bottom;shape=mxgraph.gcp2.check" vertex="1" parent="132mra72fxJDadRksCU5-78">
          <mxGeometry x="40" y="46" width="22.5" height="18" as="geometry" />
        </mxCell>
        <mxCell id="txxwDZoAXELs_-vxZRHw-14" value="" style="sketch=0;html=1;aspect=fixed;strokeColor=none;shadow=0;align=center;fillColor=#2D9C5E;verticalAlign=top;labelPosition=center;verticalLabelPosition=bottom;shape=mxgraph.gcp2.check" vertex="1" parent="132mra72fxJDadRksCU5-78">
          <mxGeometry x="40" y="70" width="22.5" height="18" as="geometry" />
        </mxCell>
        <mxCell id="txxwDZoAXELs_-vxZRHw-15" value="" style="sketch=0;html=1;aspect=fixed;strokeColor=none;shadow=0;align=center;fillColor=#2D9C5E;verticalAlign=top;labelPosition=center;verticalLabelPosition=bottom;shape=mxgraph.gcp2.check" vertex="1" parent="132mra72fxJDadRksCU5-78">
          <mxGeometry x="40" y="94" width="22.5" height="18" as="geometry" />
        </mxCell>
        <mxCell id="txxwDZoAXELs_-vxZRHw-16" value="" style="sketch=0;html=1;aspect=fixed;strokeColor=none;shadow=0;align=center;fillColor=#2D9C5E;verticalAlign=top;labelPosition=center;verticalLabelPosition=bottom;shape=mxgraph.gcp2.check" vertex="1" parent="132mra72fxJDadRksCU5-78">
          <mxGeometry x="40" y="116" width="22.5" height="18" as="geometry" />
        </mxCell>
        <mxCell id="txxwDZoAXELs_-vxZRHw-17" value="" style="sketch=0;html=1;aspect=fixed;strokeColor=none;shadow=0;align=center;fillColor=#2D9C5E;verticalAlign=top;labelPosition=center;verticalLabelPosition=bottom;shape=mxgraph.gcp2.check" vertex="1" parent="132mra72fxJDadRksCU5-78">
          <mxGeometry x="40" y="160" width="22.5" height="18" as="geometry" />
        </mxCell>
        <mxCell id="132mra72fxJDadRksCU5-89" value="" style="edgeStyle=orthogonalEdgeStyle;rounded=0;orthogonalLoop=1;jettySize=auto;html=1;" parent="1" source="132mra72fxJDadRksCU5-86" target="132mra72fxJDadRksCU5-88" edge="1">
          <mxGeometry relative="1" as="geometry" />
        </mxCell>
        <mxCell id="132mra72fxJDadRksCU5-86" value="Abgleich mit Datenbank" style="shape=document;whiteSpace=wrap;html=1;boundedLbl=1;fillColor=#6a00ff;strokeColor=#3700CC;rounded=1;fontColor=#ffffff;" parent="1" vertex="1">
          <mxGeometry x="-350" y="694.93" width="120" height="80" as="geometry" />
        </mxCell>
        <mxCell id="132mra72fxJDadRksCU5-92" value="" style="edgeStyle=orthogonalEdgeStyle;rounded=0;orthogonalLoop=1;jettySize=auto;html=1;" parent="1" source="132mra72fxJDadRksCU5-88" target="132mra72fxJDadRksCU5-91" edge="1">
          <mxGeometry relative="1" as="geometry" />
        </mxCell>
        <mxCell id="132mra72fxJDadRksCU5-93" value="" style="edgeStyle=orthogonalEdgeStyle;rounded=0;orthogonalLoop=1;jettySize=auto;html=1;" parent="1" source="132mra72fxJDadRksCU5-88" target="132mra72fxJDadRksCU5-91" edge="1">
          <mxGeometry relative="1" as="geometry" />
        </mxCell>
        <mxCell id="132mra72fxJDadRksCU5-96" value="" style="edgeStyle=orthogonalEdgeStyle;rounded=0;orthogonalLoop=1;jettySize=auto;html=1;" parent="1" source="132mra72fxJDadRksCU5-88" target="132mra72fxJDadRksCU5-95" edge="1">
          <mxGeometry relative="1" as="geometry" />
        </mxCell>
        <mxCell id="132mra72fxJDadRksCU5-88" value="Code in Datenbank abgelegt?" style="whiteSpace=wrap;html=1;fillColor=#6a00ff;strokeColor=#3700CC;fontColor=#ffffff;rounded=1;" parent="1" vertex="1">
          <mxGeometry x="-420" y="810" width="260" height="60" as="geometry" />
        </mxCell>
        <mxCell id="132mra72fxJDadRksCU5-90" value="&lt;font style=&quot;font-size: 19px;&quot;&gt;Zeugnisse mit Wasserzeichen versehen?&lt;/font&gt;" style="ellipse;shape=cloud;whiteSpace=wrap;html=1;fillColor=#a20025;fontColor=#ffffff;strokeColor=#6F0000;" parent="1" vertex="1">
          <mxGeometry x="-760" y="489.93" width="340" height="165" as="geometry" />
        </mxCell>
        <mxCell id="132mra72fxJDadRksCU5-91" value="Zugriff erteilen" style="whiteSpace=wrap;html=1;fillColor=#6a00ff;strokeColor=#3700CC;fontColor=#ffffff;rounded=1;" parent="1" vertex="1">
          <mxGeometry x="-270" y="940" width="120" height="60" as="geometry" />
        </mxCell>
        <mxCell id="132mra72fxJDadRksCU5-95" value="Zugriff verweigern" style="whiteSpace=wrap;html=1;fillColor=#6a00ff;strokeColor=#3700CC;fontColor=#ffffff;rounded=1;" parent="1" vertex="1">
          <mxGeometry x="-430" y="940" width="120" height="60" as="geometry" />
        </mxCell>
        <mxCell id="132mra72fxJDadRksCU5-103" value="" style="edgeStyle=orthogonalEdgeStyle;rounded=0;orthogonalLoop=1;jettySize=auto;html=1;" parent="1" source="132mra72fxJDadRksCU5-101" target="132mra72fxJDadRksCU5-102" edge="1">
          <mxGeometry relative="1" as="geometry" />
        </mxCell>
        <mxCell id="132mra72fxJDadRksCU5-101" value="Abgleich Vor- und Nachname mit Datenbank" style="whiteSpace=wrap;html=1;fillColor=#bac8d3;strokeColor=#23445d;rounded=1;" parent="1" vertex="1">
          <mxGeometry x="570" y="1060" width="260" height="60" as="geometry" />
        </mxCell>
        <mxCell id="132mra72fxJDadRksCU5-104" style="edgeStyle=orthogonalEdgeStyle;rounded=0;orthogonalLoop=1;jettySize=auto;html=1;entryX=0.5;entryY=0;entryDx=0;entryDy=0;" parent="1" source="132mra72fxJDadRksCU5-102" target="132mra72fxJDadRksCU5-53" edge="1">
          <mxGeometry relative="1" as="geometry" />
        </mxCell>
        <mxCell id="132mra72fxJDadRksCU5-105" value="&lt;font style=&quot;font-size: 16px;&quot;&gt;ja&lt;/font&gt;" style="edgeLabel;html=1;align=center;verticalAlign=middle;resizable=0;points=[];labelBackgroundColor=#80FF00;" parent="132mra72fxJDadRksCU5-104" vertex="1" connectable="0">
          <mxGeometry x="-0.2102" y="-1" relative="1" as="geometry">
            <mxPoint as="offset" />
          </mxGeometry>
        </mxCell>
        <mxCell id="132mra72fxJDadRksCU5-108" value="" style="edgeStyle=orthogonalEdgeStyle;rounded=0;orthogonalLoop=1;jettySize=auto;html=1;" parent="1" source="132mra72fxJDadRksCU5-102" target="132mra72fxJDadRksCU5-107" edge="1">
          <mxGeometry relative="1" as="geometry" />
        </mxCell>
        <mxCell id="132mra72fxJDadRksCU5-109" value="&lt;font style=&quot;font-size: 16px;&quot;&gt;nein&lt;/font&gt;" style="edgeLabel;html=1;align=center;verticalAlign=middle;resizable=0;points=[];labelBackgroundColor=#FF9999;" parent="132mra72fxJDadRksCU5-108" vertex="1" connectable="0">
          <mxGeometry x="-0.3701" y="4" relative="1" as="geometry">
            <mxPoint x="12" y="4" as="offset" />
          </mxGeometry>
        </mxCell>
        <mxCell id="132mra72fxJDadRksCU5-102" value="Eingabe Vor- und Nachname stimmen mit Datenbank-Daten überein" style="rhombus;whiteSpace=wrap;html=1;fillColor=#e3c800;strokeColor=#B09500;rounded=1;fontColor=#000000;" parent="1" vertex="1">
          <mxGeometry x="600" y="1169" width="200" height="190" as="geometry" />
        </mxCell>
        <mxCell id="132mra72fxJDadRksCU5-111" style="edgeStyle=orthogonalEdgeStyle;rounded=0;orthogonalLoop=1;jettySize=auto;html=1;entryX=0;entryY=0.5;entryDx=0;entryDy=0;" parent="1" target="132mra72fxJDadRksCU5-110" edge="1">
          <mxGeometry relative="1" as="geometry">
            <mxPoint x="1130" y="1264" as="sourcePoint" />
          </mxGeometry>
        </mxCell>
        <mxCell id="132mra72fxJDadRksCU5-107" value="Rückmeldung:&amp;nbsp;Dein Name ist mir nicht bekannt. Bitte teile mir kurz mit, wer du bist und, warum du meine Zeugnisse ansehen möchtest. Anschließend werde ich deine Anfrage&amp;nbsp;&lt;span style=&quot;background-color: initial;&quot;&gt;schnellstmöglich&lt;/span&gt;&lt;span style=&quot;background-color: initial;&quot;&gt;&amp;nbsp;bearbeiten&lt;/span&gt;" style="whiteSpace=wrap;html=1;fillColor=#60a917;strokeColor=#2D7600;fontColor=#ffffff;rounded=1;" parent="1" vertex="1">
          <mxGeometry x="890" y="1199" width="250" height="130" as="geometry" />
        </mxCell>
        <mxCell id="132mra72fxJDadRksCU5-114" style="edgeStyle=orthogonalEdgeStyle;rounded=0;orthogonalLoop=1;jettySize=auto;html=1;entryX=0;entryY=0.5;entryDx=0;entryDy=0;" parent="1" source="132mra72fxJDadRksCU5-110" target="132mra72fxJDadRksCU5-112" edge="1">
          <mxGeometry relative="1" as="geometry" />
        </mxCell>
        <mxCell id="132mra72fxJDadRksCU5-110" value="Formular erscheint" style="whiteSpace=wrap;html=1;fillColor=#bac8d3;strokeColor=#23445d;rounded=1;" parent="1" vertex="1">
          <mxGeometry x="1185" y="1234" width="120" height="60" as="geometry" />
        </mxCell>
        <mxCell id="132mra72fxJDadRksCU5-116" value="" style="edgeStyle=orthogonalEdgeStyle;rounded=0;orthogonalLoop=1;jettySize=auto;html=1;" parent="1" source="132mra72fxJDadRksCU5-112" target="132mra72fxJDadRksCU5-115" edge="1">
          <mxGeometry relative="1" as="geometry" />
        </mxCell>
        <mxCell id="132mra72fxJDadRksCU5-112" value="Unternehmen, Position, Telefonnr.,&amp;nbsp; Zugriffsgrund, Button" style="whiteSpace=wrap;html=1;fillColor=#cce5ff;strokeColor=#36393d;rounded=1;" parent="1" vertex="1">
          <mxGeometry x="1350" y="1234" width="160" height="60" as="geometry" />
        </mxCell>
        <mxCell id="132mra72fxJDadRksCU5-118" value="" style="edgeStyle=orthogonalEdgeStyle;rounded=0;orthogonalLoop=1;jettySize=auto;html=1;" parent="1" source="132mra72fxJDadRksCU5-115" target="132mra72fxJDadRksCU5-117" edge="1">
          <mxGeometry relative="1" as="geometry" />
        </mxCell>
        <mxCell id="132mra72fxJDadRksCU5-115" value="Klick auf Button: Anfrage absenden" style="whiteSpace=wrap;html=1;fillColor=#008a00;strokeColor=#005700;rounded=1;fontColor=#ffffff;" parent="1" vertex="1">
          <mxGeometry x="1325" y="1329" width="210" height="60" as="geometry" />
        </mxCell>
        <mxCell id="132mra72fxJDadRksCU5-120" value="" style="edgeStyle=orthogonalEdgeStyle;rounded=0;orthogonalLoop=1;jettySize=auto;html=1;" parent="1" source="132mra72fxJDadRksCU5-117" target="132mra72fxJDadRksCU5-119" edge="1">
          <mxGeometry relative="1" as="geometry" />
        </mxCell>
        <mxCell id="132mra72fxJDadRksCU5-117" value="Rückmeldung: Vielen Dank. Ich prüfe dein Anliegen und melde mich schnellstmöglich bei dir zurück.&lt;div&gt;&amp;nbsp;Eine Kopie wird an deine E-Mal-Adresse gesendet.&amp;nbsp;&lt;/div&gt;" style="whiteSpace=wrap;html=1;fillColor=#60a917;strokeColor=#2D7600;fontColor=#ffffff;rounded=1;" parent="1" vertex="1">
          <mxGeometry x="1285" y="1430" width="290" height="100" as="geometry" />
        </mxCell>
        <mxCell id="132mra72fxJDadRksCU5-146" style="edgeStyle=orthogonalEdgeStyle;rounded=0;orthogonalLoop=1;jettySize=auto;html=1;entryX=0.5;entryY=0;entryDx=0;entryDy=0;" parent="1" source="132mra72fxJDadRksCU5-119" target="132mra72fxJDadRksCU5-121" edge="1">
          <mxGeometry relative="1" as="geometry" />
        </mxCell>
        <mxCell id="132mra72fxJDadRksCU5-119" value="E-Mail mit Kopie der eingegebenen Daten wird an User-E-Mail gesendet" style="whiteSpace=wrap;html=1;fillColor=#bac8d3;strokeColor=#23445d;rounded=1;" parent="1" vertex="1">
          <mxGeometry x="1315" y="1585" width="230" height="90" as="geometry" />
        </mxCell>
        <mxCell id="132mra72fxJDadRksCU5-124" value="" style="edgeStyle=orthogonalEdgeStyle;rounded=0;orthogonalLoop=1;jettySize=auto;html=1;" parent="1" source="132mra72fxJDadRksCU5-121" target="132mra72fxJDadRksCU5-123" edge="1">
          <mxGeometry relative="1" as="geometry" />
        </mxCell>
        <mxCell id="132mra72fxJDadRksCU5-121" value="E-Mail mit Anfrage wird an mich gesendet" style="whiteSpace=wrap;html=1;fillColor=#bac8d3;strokeColor=#23445d;rounded=1;" parent="1" vertex="1">
          <mxGeometry x="1315" y="1730" width="230" height="90" as="geometry" />
        </mxCell>
        <mxCell id="132mra72fxJDadRksCU5-128" value="" style="edgeStyle=orthogonalEdgeStyle;rounded=0;orthogonalLoop=1;jettySize=auto;html=1;" parent="1" source="132mra72fxJDadRksCU5-123" target="132mra72fxJDadRksCU5-127" edge="1">
          <mxGeometry relative="1" as="geometry" />
        </mxCell>
        <mxCell id="132mra72fxJDadRksCU5-123" value="Prüfung der Anfrage" style="whiteSpace=wrap;html=1;fillColor=#bac8d3;strokeColor=#23445d;rounded=1;" parent="1" vertex="1">
          <mxGeometry x="1090" y="1745" width="155" height="60" as="geometry" />
        </mxCell>
        <mxCell id="132mra72fxJDadRksCU5-148" value="" style="edgeStyle=orthogonalEdgeStyle;rounded=0;orthogonalLoop=1;jettySize=auto;html=1;" parent="1" source="132mra72fxJDadRksCU5-125" target="132mra72fxJDadRksCU5-147" edge="1">
          <mxGeometry relative="1" as="geometry" />
        </mxCell>
        <mxCell id="132mra72fxJDadRksCU5-125" value="Zugangscode erstellen und Ablage in DB" style="whiteSpace=wrap;html=1;fillColor=#bac8d3;strokeColor=#23445d;rounded=1;" parent="1" vertex="1">
          <mxGeometry x="570" y="1745" width="150" height="60" as="geometry" />
        </mxCell>
        <mxCell id="132mra72fxJDadRksCU5-130" style="edgeStyle=orthogonalEdgeStyle;rounded=0;orthogonalLoop=1;jettySize=auto;html=1;entryX=1;entryY=0.5;entryDx=0;entryDy=0;" parent="1" source="132mra72fxJDadRksCU5-127" target="132mra72fxJDadRksCU5-125" edge="1">
          <mxGeometry relative="1" as="geometry" />
        </mxCell>
        <mxCell id="132mra72fxJDadRksCU5-131" value="&lt;font style=&quot;font-size: 16px;&quot;&gt;ja&lt;/font&gt;" style="edgeLabel;html=1;align=center;verticalAlign=middle;resizable=0;points=[];labelBackgroundColor=#80FF00;" parent="132mra72fxJDadRksCU5-130" vertex="1" connectable="0">
          <mxGeometry x="0.0749" y="1" relative="1" as="geometry">
            <mxPoint x="5" y="-1" as="offset" />
          </mxGeometry>
        </mxCell>
        <mxCell id="132mra72fxJDadRksCU5-136" value="" style="edgeStyle=orthogonalEdgeStyle;rounded=0;orthogonalLoop=1;jettySize=auto;html=1;" parent="1" source="132mra72fxJDadRksCU5-127" target="132mra72fxJDadRksCU5-135" edge="1">
          <mxGeometry relative="1" as="geometry" />
        </mxCell>
        <mxCell id="132mra72fxJDadRksCU5-140" value="&lt;font style=&quot;font-size: 16px;&quot;&gt;nein&lt;/font&gt;" style="edgeLabel;html=1;align=center;verticalAlign=middle;resizable=0;points=[];labelBackgroundColor=#FF9999;" parent="132mra72fxJDadRksCU5-136" vertex="1" connectable="0">
          <mxGeometry x="-0.4422" y="-1" relative="1" as="geometry">
            <mxPoint x="1" y="14" as="offset" />
          </mxGeometry>
        </mxCell>
        <mxCell id="132mra72fxJDadRksCU5-127" value="Anfrage gerechtfertigt?" style="rhombus;whiteSpace=wrap;html=1;fillColor=#e3c800;strokeColor=#B09500;rounded=1;fontColor=#000000;" parent="1" vertex="1">
          <mxGeometry x="805" y="1675" width="215" height="200" as="geometry" />
        </mxCell>
        <mxCell id="132mra72fxJDadRksCU5-138" value="" style="edgeStyle=orthogonalEdgeStyle;rounded=0;orthogonalLoop=1;jettySize=auto;html=1;" parent="1" source="132mra72fxJDadRksCU5-135" target="132mra72fxJDadRksCU5-137" edge="1">
          <mxGeometry relative="1" as="geometry" />
        </mxCell>
        <mxCell id="132mra72fxJDadRksCU5-141" value="&lt;font style=&quot;font-size: 16px;&quot;&gt;kein Zugriff&lt;/font&gt;" style="edgeLabel;html=1;align=center;verticalAlign=middle;resizable=0;points=[];labelBackgroundColor=#FF9999;" parent="132mra72fxJDadRksCU5-138" vertex="1" connectable="0">
          <mxGeometry x="-0.1118" relative="1" as="geometry">
            <mxPoint as="offset" />
          </mxGeometry>
        </mxCell>
        <mxCell id="132mra72fxJDadRksCU5-139" style="edgeStyle=orthogonalEdgeStyle;rounded=0;orthogonalLoop=1;jettySize=auto;html=1;entryX=0.5;entryY=1;entryDx=0;entryDy=0;" parent="1" source="132mra72fxJDadRksCU5-135" target="132mra72fxJDadRksCU5-125" edge="1">
          <mxGeometry relative="1" as="geometry" />
        </mxCell>
        <mxCell id="132mra72fxJDadRksCU5-142" value="&lt;font style=&quot;font-size: 16px;&quot;&gt;Zugriff&lt;/font&gt;&lt;div style=&quot;font-size: 16px;&quot;&gt;genehmigt&lt;/div&gt;" style="edgeLabel;html=1;align=center;verticalAlign=middle;resizable=0;points=[];labelBackgroundColor=#80ff00;" parent="132mra72fxJDadRksCU5-139" vertex="1" connectable="0">
          <mxGeometry x="0.3102" y="-1" relative="1" as="geometry">
            <mxPoint as="offset" />
          </mxGeometry>
        </mxCell>
        <mxCell id="132mra72fxJDadRksCU5-135" value="E-Mail an User: Leider wurde der Zugriff auf meine Zeugnisse nicht freigegeben. ...&lt;div&gt;ODER:&lt;/div&gt;&lt;div&gt;Telefonat mit User&lt;/div&gt;" style="whiteSpace=wrap;html=1;fillColor=#bac8d3;strokeColor=#23445d;rounded=1;" parent="1" vertex="1">
          <mxGeometry x="800" y="1950" width="225" height="100" as="geometry" />
        </mxCell>
        <mxCell id="132mra72fxJDadRksCU5-137" value="Ende" style="whiteSpace=wrap;html=1;fillColor=#0050ef;strokeColor=#001DBC;rounded=1;fontColor=#ffffff;" parent="1" vertex="1">
          <mxGeometry x="852.5" y="2150" width="120" height="60" as="geometry" />
        </mxCell>
        <mxCell id="132mra72fxJDadRksCU5-150" style="edgeStyle=orthogonalEdgeStyle;rounded=0;orthogonalLoop=1;jettySize=auto;html=1;" parent="1" source="132mra72fxJDadRksCU5-147" edge="1">
          <mxGeometry relative="1" as="geometry">
            <mxPoint x="370" y="1440" as="targetPoint" />
          </mxGeometry>
        </mxCell>
        <mxCell id="132mra72fxJDadRksCU5-147" value="Rückmeldung an User per Mail:&lt;div&gt;Vielen Dank für deine Anfrage. Zugriff wurde genehmigt. Anbei der Code (+ Link zu Webseite)&lt;/div&gt;" style="whiteSpace=wrap;html=1;fillColor=#60a917;strokeColor=#2D7600;rounded=1;fontColor=#ffffff;" parent="1" vertex="1">
          <mxGeometry x="507.5" y="1592.5" width="275" height="75" as="geometry" />
        </mxCell>
        <mxCell id="132mra72fxJDadRksCU5-151" value="Ende" style="whiteSpace=wrap;html=1;fillColor=#0050ef;strokeColor=#001DBC;rounded=1;fontColor=#ffffff;" parent="1" vertex="1">
          <mxGeometry x="275" y="1069.9999999999998" width="120" height="60" as="geometry" />
        </mxCell>
        <mxCell id="132mra72fxJDadRksCU5-153" value="GET" style="swimlane;horizontal=0;whiteSpace=wrap;html=1;fillColor=#008a00;fontColor=#ffffff;strokeColor=#005700;" parent="1" vertex="1">
          <mxGeometry x="1205" y="90" width="370" height="70" as="geometry" />
        </mxCell>
        <mxCell id="132mra72fxJDadRksCU5-156" value="/certificates" style="text;html=1;align=center;verticalAlign=middle;resizable=0;points=[];autosize=1;strokeColor=none;fillColor=none;fontSize=16;fontStyle=1" parent="132mra72fxJDadRksCU5-153" vertex="1">
          <mxGeometry x="45" y="20" width="100" height="30" as="geometry" />
        </mxCell>
        <mxCell id="132mra72fxJDadRksCU5-155" value="&lt;h2&gt;Endpunkte&lt;/h2&gt;" style="text;html=1;align=center;verticalAlign=middle;whiteSpace=wrap;rounded=0;fontStyle=5" parent="1" vertex="1">
          <mxGeometry x="1300" y="30" width="145" height="30" as="geometry" />
        </mxCell>
        <mxCell id="132mra72fxJDadRksCU5-157" value="POST" style="swimlane;horizontal=0;whiteSpace=wrap;html=1;fillColor=#d80073;fontColor=#ffffff;strokeColor=#A50040;" parent="1" vertex="1">
          <mxGeometry x="1205" y="190" width="370" height="70" as="geometry" />
        </mxCell>
        <mxCell id="132mra72fxJDadRksCU5-158" value="/refreshToken" style="text;html=1;align=left;verticalAlign=middle;resizable=0;points=[];autosize=1;strokeColor=none;fillColor=none;fontSize=16;fontStyle=1" parent="132mra72fxJDadRksCU5-157" vertex="1">
          <mxGeometry x="45" y="20" width="120" height="30" as="geometry" />
        </mxCell>
        <mxCell id="132mra72fxJDadRksCU5-159" value="POST" style="swimlane;horizontal=0;whiteSpace=wrap;html=1;fillColor=#d80073;fontColor=#ffffff;strokeColor=#A50040;" parent="1" vertex="1">
          <mxGeometry x="1205" y="290" width="370" height="110" as="geometry" />
        </mxCell>
        <mxCell id="132mra72fxJDadRksCU5-160" value="/login" style="text;html=1;align=left;verticalAlign=middle;resizable=0;points=[];autosize=1;strokeColor=none;fillColor=none;fontSize=16;fontStyle=1" parent="132mra72fxJDadRksCU5-159" vertex="1">
          <mxGeometry x="45" y="20" width="60" height="30" as="geometry" />
        </mxCell>
        <mxCell id="132mra72fxJDadRksCU5-161" value="Access Code eingeben" style="text;html=1;align=left;verticalAlign=middle;whiteSpace=wrap;rounded=0;fontSize=16;" parent="132mra72fxJDadRksCU5-159" vertex="1">
          <mxGeometry x="45" y="60" width="305" height="30" as="geometry" />
        </mxCell>
        <mxCell id="132mra72fxJDadRksCU5-162" value="POST" style="swimlane;horizontal=0;whiteSpace=wrap;html=1;fillColor=#d80073;fontColor=#ffffff;strokeColor=#A50040;" parent="1" vertex="1">
          <mxGeometry x="1620" y="202" width="405" height="110" as="geometry" />
        </mxCell>
        <mxCell id="132mra72fxJDadRksCU5-163" value="/accessCode" style="text;html=1;align=left;verticalAlign=middle;resizable=0;points=[];autosize=1;strokeColor=none;fillColor=none;fontSize=16;fontStyle=1" parent="132mra72fxJDadRksCU5-162" vertex="1">
          <mxGeometry x="45" y="20" width="120" height="30" as="geometry" />
        </mxCell>
        <mxCell id="132mra72fxJDadRksCU5-164" value="&lt;div&gt;= /register&lt;/div&gt;Access Code erzeugen (Abgleich mit lastname oder email)" style="text;html=1;align=left;verticalAlign=middle;whiteSpace=wrap;rounded=0;fontSize=16;" parent="132mra72fxJDadRksCU5-162" vertex="1">
          <mxGeometry x="45" y="60" width="305" height="30" as="geometry" />
        </mxCell>
        <mxCell id="txxwDZoAXELs_-vxZRHw-11" value="" style="sketch=0;html=1;aspect=fixed;strokeColor=none;shadow=0;align=center;fillColor=#2D9C5E;verticalAlign=top;labelPosition=center;verticalLabelPosition=bottom;shape=mxgraph.gcp2.check" vertex="1" parent="132mra72fxJDadRksCU5-162">
          <mxGeometry x="315" y="10" width="100" height="80" as="geometry" />
        </mxCell>
        <mxCell id="132mra72fxJDadRksCU5-165" value="POST" style="swimlane;horizontal=0;whiteSpace=wrap;html=1;fillColor=#d80073;fontColor=#ffffff;strokeColor=#A50040;" parent="1" vertex="1">
          <mxGeometry x="1205" y="440" width="375" height="130" as="geometry" />
        </mxCell>
        <mxCell id="132mra72fxJDadRksCU5-166" value="/verifyAccess" style="text;html=1;align=left;verticalAlign=middle;resizable=0;points=[];autosize=1;strokeColor=none;fillColor=none;fontSize=16;fontStyle=1" parent="132mra72fxJDadRksCU5-165" vertex="1">
          <mxGeometry x="45" y="20" width="120" height="30" as="geometry" />
        </mxCell>
        <mxCell id="132mra72fxJDadRksCU5-167" value="= verifyEmail&lt;div&gt;eingegebenen Access Code mit Access Code in DB vergleichen&lt;/div&gt;" style="text;html=1;align=left;verticalAlign=middle;whiteSpace=wrap;rounded=0;fontSize=16;" parent="132mra72fxJDadRksCU5-165" vertex="1">
          <mxGeometry x="45" y="70" width="305" height="30" as="geometry" />
        </mxCell>
        <mxCell id="132mra72fxJDadRksCU5-168" value="POST" style="swimlane;horizontal=0;whiteSpace=wrap;html=1;fillColor=#d80073;fontColor=#ffffff;strokeColor=#A50040;" parent="1" vertex="1">
          <mxGeometry x="1205" y="610" width="370" height="130" as="geometry" />
        </mxCell>
        <mxCell id="132mra72fxJDadRksCU5-169" value="/generateNewAccessCode" style="text;html=1;align=left;verticalAlign=middle;resizable=0;points=[];autosize=1;strokeColor=none;fillColor=none;fontSize=16;fontStyle=1" parent="132mra72fxJDadRksCU5-168" vertex="1">
          <mxGeometry x="45" y="20" width="210" height="30" as="geometry" />
        </mxCell>
        <mxCell id="132mra72fxJDadRksCU5-170" value="= resendEmail&lt;div&gt;Mail an User Access Code erneut versenden&lt;/div&gt;" style="text;html=1;align=left;verticalAlign=middle;whiteSpace=wrap;rounded=0;fontSize=16;" parent="132mra72fxJDadRksCU5-168" vertex="1">
          <mxGeometry x="45" y="70" width="305" height="30" as="geometry" />
        </mxCell>
        <mxCell id="txxwDZoAXELs_-vxZRHw-2" value="POST" style="swimlane;horizontal=0;whiteSpace=wrap;html=1;fillColor=#d80073;fontColor=#ffffff;strokeColor=#A50040;" vertex="1" parent="1">
          <mxGeometry x="1620" y="80" width="420" height="90" as="geometry" />
        </mxCell>
        <mxCell id="txxwDZoAXELs_-vxZRHw-3" value="/" style="text;html=1;align=left;verticalAlign=middle;resizable=0;points=[];autosize=1;strokeColor=none;fillColor=none;fontSize=16;fontStyle=1" vertex="1" parent="txxwDZoAXELs_-vxZRHw-2">
          <mxGeometry x="45" y="20" width="30" height="30" as="geometry" />
        </mxCell>
        <mxCell id="txxwDZoAXELs_-vxZRHw-1" value="" style="sketch=0;html=1;aspect=fixed;strokeColor=none;shadow=0;align=center;fillColor=#2D9C5E;verticalAlign=top;labelPosition=center;verticalLabelPosition=bottom;shape=mxgraph.gcp2.check" vertex="1" parent="txxwDZoAXELs_-vxZRHw-2">
          <mxGeometry x="320" y="5" width="100" height="80" as="geometry" />
        </mxCell>
        <mxCell id="txxwDZoAXELs_-vxZRHw-4" value="register new user (sign up)" style="text;html=1;align=left;verticalAlign=middle;resizable=0;points=[];autosize=1;strokeColor=none;fillColor=none;fontSize=16;" vertex="1" parent="txxwDZoAXELs_-vxZRHw-2">
          <mxGeometry x="45" y="50" width="210" height="30" as="geometry" />
        </mxCell>
        <mxCell id="txxwDZoAXELs_-vxZRHw-5" value="" style="shape=step;perimeter=stepPerimeter;whiteSpace=wrap;html=1;fixedSize=1;fillColor=#fad7ac;strokeColor=#b46504;rotation=90;" vertex="1" parent="1">
          <mxGeometry y="102.5" width="137.5" height="175" as="geometry" />
        </mxCell>
        <mxCell id="txxwDZoAXELs_-vxZRHw-6" value="&lt;b&gt;#1 &lt;/b&gt;user von mir direkt in DB registriert (Coder per Mail bei Bewerbung)" style="text;html=1;align=left;verticalAlign=middle;whiteSpace=wrap;rounded=0;" vertex="1" parent="1">
          <mxGeometry x="-7" y="150" width="150" height="30" as="geometry" />
        </mxCell>
        <mxCell id="txxwDZoAXELs_-vxZRHw-7" value="&lt;b&gt;#2&lt;/b&gt; user hat sich bereits selbst registriert (Code per automatischer Mail)" style="text;html=1;align=left;verticalAlign=middle;whiteSpace=wrap;rounded=0;" vertex="1" parent="1">
          <mxGeometry x="-6.25" y="202" width="150" height="30" as="geometry" />
        </mxCell>
        <mxCell id="txxwDZoAXELs_-vxZRHw-8" value="" style="shape=step;perimeter=stepPerimeter;whiteSpace=wrap;html=1;fixedSize=1;fillColor=#fad7ac;strokeColor=#b46504;rotation=90;" vertex="1" parent="1">
          <mxGeometry x="631.25" y="102.5" width="137.5" height="175" as="geometry" />
        </mxCell>
        <mxCell id="txxwDZoAXELs_-vxZRHw-9" value="&lt;b&gt;#1 &lt;/b&gt;user registriert sich selbst (code per automatischer Mail)" style="text;html=1;align=left;verticalAlign=middle;whiteSpace=wrap;rounded=0;" vertex="1" parent="1">
          <mxGeometry x="620" y="150" width="167.5" height="30" as="geometry" />
        </mxCell>
        <mxCell id="txxwDZoAXELs_-vxZRHw-10" value="&lt;b&gt;#2&amp;nbsp;&lt;/b&gt;user hat Code vergessen und fragt neuen Code an (code per automatischer Mail)" style="text;html=1;align=left;verticalAlign=middle;whiteSpace=wrap;rounded=0;" vertex="1" parent="1">
          <mxGeometry x="620" y="190" width="167.5" height="30" as="geometry" />
        </mxCell>
      </root>
    </mxGraphModel>
  </diagram>
</mxfile>
